<svg xmlns="http://www.w3.org/2000/svg" xmlns:xlink="http://www.w3.org/1999/xlink" contentStyleType="text/css" data-diagram-type="DESCRIPTION" height="777px" preserveAspectRatio="none" style="width:1559px;height:777px;background:#FFFFFF;" version="1.1" viewBox="0 0 1559 777" width="1559px" zoomAndPan="magnify"><?plantuml 1.2026.6?><defs/><g><g class="title" data-source-line="3"><text fill="#000000" font-family="Helvetica" font-size="14" font-weight="700" lengthAdjust="spacing" textLength="469.8887" x="541.0557" y="20.7803">OpenVehicleFramework &#8212; Generated Target and Runtime Deployment</text></g><!--cluster inputs--><g class="cluster" data-qualified-name="inputs" data-source-line="23" id="ent0001"><rect fill="#F3F8FC" height="81" rx="2.5" ry="2.5" style="stroke:#181818;stroke-width:1;" width="567" x="915" y="39"/><text fill="#000000" font-family="Helvetica" font-size="13" font-weight="700" lengthAdjust="spacing" textLength="182.7427" x="1107.1287" y="51.0103">Authored and selected inputs</text></g><!--cluster artifacts--><g class="cluster" data-qualified-name="artifacts" data-source-line="32" id="ent0007"><rect fill="#FFF8E1" height="81" rx="2.5" ry="2.5" style="stroke:#181818;stroke-width:1;" width="773" x="778" y="341.5"/><text fill="#000000" font-family="Helvetica" font-size="13" font-weight="700" lengthAdjust="spacing" textLength="184.2407" x="1072.3796" y="353.5103">Separately shippable artifacts</text></g><!--cluster ecu--><g class="cluster" data-qualified-name="ecu" data-source-line="54" id="ent0025"><polygon fill="#F7F9FA" points="14,149,24,139,770,139,770,759.5,760,769.5,14,769.5,14,149" style="stroke:#37474F;stroke-width:1;stroke-linejoin:miter;stroke-miterlimit:10;"/><line style="stroke:#37474F;stroke-width:1;" x1="760" x2="770" y1="149" y2="139"/><line style="stroke:#37474F;stroke-width:1;" x1="14" x2="760" y1="149" y2="149"/><line style="stroke:#37474F;stroke-width:1;" x1="760" x2="760" y1="149" y2="769.5"/><text fill="#000000" font-family="Helvetica" font-size="13" font-weight="700" lengthAdjust="spacing" textLength="70.7891" x="352.6055" y="162.0103">Target ECU</text></g><!--cluster linux--><g class="cluster" data-qualified-name="ecu.linux" data-source-line="55" id="ent0026"><polygon fill="#FAFAFA" points="22,178,32,168,762,168,762,751.5,752,761.5,22,761.5,22,178" style="stroke:#37474F;stroke-width:1;stroke-linejoin:miter;stroke-miterlimit:10;"/><line style="stroke:#37474F;stroke-width:1;" x1="752" x2="762" y1="178" y2="168"/><line style="stroke:#37474F;stroke-width:1;" x1="22" x2="752" y1="178" y2="178"/><line style="stroke:#37474F;stroke-width:1;" x1="752" x2="752" y1="178" y2="761.5"/><text fill="#000000" font-family="Helvetica" font-size="13" font-weight="700" lengthAdjust="spacing" textLength="74.3945" x="350.8027" y="191.0103">Linux target</text></g><!--cluster supervisor--><g class="cluster" data-qualified-name="ecu.linux.supervisor" data-source-line="59" id="ent0029"><polygon fill="#FAFAFA" points="188,207,198,197,516,197,516,645.5,506,655.5,188,655.5,188,207" style="stroke:#37474F;stroke-width:1;stroke-linejoin:miter;stroke-miterlimit:10;"/><line style="stroke:#37474F;stroke-width:1;" x1="506" x2="516" y1="207" y2="197"/><line style="stroke:#37474F;stroke-width:1;" x1="188" x2="506" y1="207" y2="207"/><line style="stroke:#37474F;stroke-width:1;" x1="506" x2="506" y1="207" y2="655.5"/><text fill="#000000" font-family="Helvetica" font-size="13" font-style="italic" lengthAdjust="spacing" textLength="145.2598" x="275.3701" y="220.0103">&#171;execution environment&#187;</text><text fill="#000000" font-family="Helvetica" font-size="13" font-weight="700" lengthAdjust="spacing" textLength="27.4346" x="334.2827" y="233.0103">dinit</text><text fill="#000000" font-family="Helvetica" font-size="13" font-weight="700" lengthAdjust="spacing" textLength="109.8208" x="293.0896" y="246.0103">PID 1 / supervisor</text></g><!--cluster services--><g class="cluster" data-qualified-name="ecu.linux.supervisor.services" data-source-line="60" id="ent0030"><rect fill="#FAFAFA" height="75" rx="2.5" ry="2.5" style="stroke:#37474F;stroke-width:1;" width="312" x="196" y="572.5"/><rect fill="#FAFAFA" height="10" style="stroke:#37474F;stroke-width:1;" width="15" x="488" y="577.5"/><rect fill="#FAFAFA" height="2" style="stroke:#37474F;stroke-width:1;" width="4" x="486" y="579.5"/><rect fill="#FAFAFA" height="2" style="stroke:#37474F;stroke-width:1;" width="4" x="486" y="583.5"/><text fill="#000000" font-family="Helvetica" font-size="13" font-weight="700" lengthAdjust="spacing" textLength="108.3926" x="297.8037" y="595.5103">Platform services</text></g><!--entity generator--><g class="entity" data-qualified-name="generator" data-source-line="30" id="ent0006"><rect fill="#FAFAFA" height="69" rx="2.5" ry="2.5" style="stroke:#37474F;stroke-width:0.5;" width="195.3906" x="1088.5" y="229.5"/><rect fill="#FAFAFA" height="10" style="stroke:#37474F;stroke-width:0.5;" width="15" x="1263.8906" y="234.5"/><rect fill="#FAFAFA" height="2" style="stroke:#37474F;stroke-width:0.5;" width="4" x="1261.8906" y="236.5"/><rect fill="#FAFAFA" height="2" style="stroke:#37474F;stroke-width:0.5;" width="4" x="1261.8906" y="240.5"/><text fill="#000000" font-family="Helvetica" font-size="13" font-style="italic" lengthAdjust="spacing" textLength="70.0972" x="1146.1467" y="259.5103">&#171;build time&#187;</text><text fill="#000000" font-family="Helvetica" font-size="13" lengthAdjust="spacing" textLength="155.3906" x="1103.5" y="272.5103">Validated Bazel generation</text><text fill="#000000" font-family="Helvetica" font-size="13" lengthAdjust="spacing" textLength="126.4517" x="1103.5" y="285.5103">and system resolution</text></g><!--entity rootfs--><g class="entity" data-qualified-name="rootfs" data-source-line="39" id="ent0012"><rect fill="#ECEFF1" height="62" rx="2.5" ry="2.5" style="stroke:#546E7A;stroke-width:0.5;" width="141.979" x="960" y="467.5"/><polygon fill="#ECEFF1" points="1084.979,472.5,1084.979,486.5,1096.979,486.5,1096.979,478.5,1090.979,472.5,1084.979,472.5" style="stroke:#546E7A;stroke-width:0.5;stroke-linejoin:miter;stroke-miterlimit:10;"/><line style="stroke:#546E7A;stroke-width:0.5;" x1="1090.979" x2="1090.979" y1="472.5" y2="478.5"/><line style="stroke:#546E7A;stroke-width:0.5;" x1="1096.979" x2="1090.979" y1="478.5" y2="478.5"/><text fill="#000000" font-family="Helvetica" font-size="13" font-style="italic" lengthAdjust="spacing" textLength="77.3271" x="987.3259" y="490.5103">&#171;assembled&#187;</text><text fill="#000000" font-family="Helvetica" font-size="13" lengthAdjust="spacing" textLength="111.979" x="970" y="503.5103">Deterministic target</text><text fill="#000000" font-family="Helvetica" font-size="13" lengthAdjust="spacing" textLength="57.7891" x="970" y="516.5103">filesystem</text></g><g class="entity" data-qualified-name="GMN49" data-source-line="87" id="ent0050"><path d="M778,246 L778,282 L1043.9878,282 L1043.9878,256 L1033.9878,246 L778,246" fill="#FEFFDD" style="stroke:#181818;stroke-width:0.5;"/><path d="M1033.9878,246 L1033.9878,256 L1043.9878,256 L1033.9878,246" fill="#FEFFDD" style="stroke:#181818;stroke-width:1;"/><text fill="#000000" font-family="Helvetica" font-size="13" lengthAdjust="spacing" textLength="235.606" x="784" y="261.0103">Startup follows generated dependencies.</text><text fill="#000000" font-family="Helvetica" font-size="13" lengthAdjust="spacing" textLength="244.9878" x="784" y="274.0103">Shutdown reverses the dependency order.</text></g><!--entity smithy--><g class="entity" data-qualified-name="inputs.smithy" data-source-line="24" id="ent0002"><rect fill="#ECEFF1" height="49" rx="2.5" ry="2.5" style="stroke:#546E7A;stroke-width:0.5;" width="114.519" x="923.5" y="63"/><polygon fill="#ECEFF1" points="1021.019,68,1021.019,82,1033.019,82,1033.019,74,1027.019,68,1021.019,68" style="stroke:#546E7A;stroke-width:0.5;stroke-linejoin:miter;stroke-miterlimit:10;"/><line style="stroke:#546E7A;stroke-width:0.5;" x1="1027.019" x2="1027.019" y1="68" y2="74"/><line style="stroke:#546E7A;stroke-width:0.5;" x1="1033.019" x2="1027.019" y1="74" y2="74"/><text fill="#000000" font-family="Helvetica" font-size="13" lengthAdjust="spacing" textLength="84.519" x="933.5" y="86.0103">Smithy service</text><text fill="#000000" font-family="Helvetica" font-size="13" lengthAdjust="spacing" textLength="52.7427" x="933.5" y="99.0103">contracts</text></g><!--entity app_cue--><g class="entity" data-qualified-name="inputs.app_cue" data-source-line="25" id="ent0003"><rect fill="#ECEFF1" height="49" rx="2.5" ry="2.5" style="stroke:#546E7A;stroke-width:0.5;" width="124.6563" x="1056.5" y="63"/><polygon fill="#ECEFF1" points="1164.1563,68,1164.1563,82,1176.1563,82,1176.1563,74,1170.1563,68,1164.1563,68" style="stroke:#546E7A;stroke-width:0.5;stroke-linejoin:miter;stroke-miterlimit:10;"/><line style="stroke:#546E7A;stroke-width:0.5;" x1="1170.1563" x2="1170.1563" y1="68" y2="74"/><line style="stroke:#546E7A;stroke-width:0.5;" x1="1176.1563" x2="1170.1563" y1="74" y2="74"/><text fill="#000000" font-family="Helvetica" font-size="13" lengthAdjust="spacing" textLength="94.6563" x="1066.5" y="86.0103">Application CUE</text><text fill="#000000" font-family="Helvetica" font-size="13" lengthAdjust="spacing" textLength="67.209" x="1066.5" y="99.0103">deployment</text></g><!--entity platform_cue--><g class="entity" data-qualified-name="inputs.platform_cue" data-source-line="26" id="ent0004"><rect fill="#ECEFF1" height="49" rx="2.5" ry="2.5" style="stroke:#546E7A;stroke-width:0.5;" width="109.46" x="1199.5" y="63"/><polygon fill="#ECEFF1" points="1291.96,68,1291.96,82,1303.96,82,1303.96,74,1297.96,68,1291.96,68" style="stroke:#546E7A;stroke-width:0.5;stroke-linejoin:miter;stroke-miterlimit:10;"/><line style="stroke:#546E7A;stroke-width:0.5;" x1="1297.96" x2="1297.96" y1="68" y2="74"/><line style="stroke:#546E7A;stroke-width:0.5;" x1="1303.96" x2="1297.96" y1="74" y2="74"/><text fill="#000000" font-family="Helvetica" font-size="13" lengthAdjust="spacing" textLength="79.46" x="1209.5" y="86.0103">Platform CUE</text><text fill="#000000" font-family="Helvetica" font-size="13" lengthAdjust="spacing" textLength="33.2363" x="1209.5" y="99.0103">policy</text></g><!--entity allocation--><g class="entity" data-qualified-name="inputs.allocation" data-source-line="27" id="ent0005"><rect fill="#ECEFF1" height="49" rx="2.5" ry="2.5" style="stroke:#546E7A;stroke-width:0.5;" width="147.0698" x="1326.5" y="63"/><polygon fill="#ECEFF1" points="1456.5698,68,1456.5698,82,1468.5698,82,1468.5698,74,1462.5698,68,1456.5698,68" style="stroke:#546E7A;stroke-width:0.5;stroke-linejoin:miter;stroke-miterlimit:10;"/><line style="stroke:#546E7A;stroke-width:0.5;" x1="1462.5698" x2="1462.5698" y1="68" y2="74"/><line style="stroke:#546E7A;stroke-width:0.5;" x1="1468.5698" x2="1462.5698" y1="74" y2="74"/><text fill="#000000" font-family="Helvetica" font-size="13" lengthAdjust="spacing" textLength="115.6289" x="1336.5" y="86.0103">Execution allocation</text><text fill="#000000" font-family="Helvetica" font-size="13" lengthAdjust="spacing" textLength="117.0698" x="1336.5" y="99.0103">domains and modes</text></g><!--entity app_bundles--><g class="entity" data-qualified-name="artifacts.app_bundles" data-source-line="33" id="ent0008"><rect fill="#ECEFF1" height="49" rx="2.5" ry="2.5" style="stroke:#546E7A;stroke-width:0.5;" width="142.7471" x="786.5" y="365.5"/><polygon fill="#ECEFF1" points="912.2471,370.5,912.2471,384.5,924.2471,384.5,924.2471,376.5,918.2471,370.5,912.2471,370.5" style="stroke:#546E7A;stroke-width:0.5;stroke-linejoin:miter;stroke-miterlimit:10;"/><line style="stroke:#546E7A;stroke-width:0.5;" x1="918.2471" x2="918.2471" y1="370.5" y2="376.5"/><line style="stroke:#546E7A;stroke-width:0.5;" x1="924.2471" x2="918.2471" y1="376.5" y2="376.5"/><text fill="#000000" font-family="Helvetica" font-size="13" lengthAdjust="spacing" textLength="112.7471" x="796.5" y="388.5103">Application bundles</text><text fill="#000000" font-family="Helvetica" font-size="13" lengthAdjust="spacing" textLength="102.6353" x="796.5" y="401.5103">/opt/&lt;application&gt;</text></g><!--entity com_deployments--><g class="entity" data-qualified-name="artifacts.com_deployments" data-source-line="34" id="ent0009"><rect fill="#ECEFF1" height="49" rx="2.5" ry="2.5" style="stroke:#546E7A;stroke-width:0.5;" width="167.2744" x="947.5" y="365.5"/><polygon fill="#ECEFF1" points="1097.7744,370.5,1097.7744,384.5,1109.7744,384.5,1109.7744,376.5,1103.7744,370.5,1097.7744,370.5" style="stroke:#546E7A;stroke-width:0.5;stroke-linejoin:miter;stroke-miterlimit:10;"/><line style="stroke:#546E7A;stroke-width:0.5;" x1="1103.7744" x2="1103.7744" y1="370.5" y2="376.5"/><line style="stroke:#546E7A;stroke-width:0.5;" x1="1109.7744" x2="1103.7744" y1="376.5" y2="376.5"/><text fill="#000000" font-family="Helvetica" font-size="13" lengthAdjust="spacing" textLength="137.2744" x="957.5" y="388.5103">Communication runtime</text><text fill="#000000" font-family="Helvetica" font-size="13" lengthAdjust="spacing" textLength="73.709" x="957.5" y="401.5103">deployments</text></g><!--entity exec_deployment--><g class="entity" data-qualified-name="artifacts.exec_deployment" data-source-line="35" id="ent0010"><rect fill="#ECEFF1" height="49" rx="2.5" ry="2.5" style="stroke:#546E7A;stroke-width:0.5;" width="171.6162" x="1133" y="365.5"/><polygon fill="#ECEFF1" points="1287.6162,370.5,1287.6162,384.5,1299.6162,384.5,1299.6162,376.5,1293.6162,370.5,1287.6162,370.5" style="stroke:#546E7A;stroke-width:0.5;stroke-linejoin:miter;stroke-miterlimit:10;"/><line style="stroke:#546E7A;stroke-width:0.5;" x1="1293.6162" x2="1293.6162" y1="370.5" y2="376.5"/><line style="stroke:#546E7A;stroke-width:0.5;" x1="1299.6162" x2="1293.6162" y1="376.5" y2="376.5"/><text fill="#000000" font-family="Helvetica" font-size="13" lengthAdjust="spacing" textLength="121.4116" x="1143" y="388.5103">Execution model and</text><text fill="#000000" font-family="Helvetica" font-size="13" lengthAdjust="spacing" textLength="141.6162" x="1143" y="401.5103">dinit service descriptions</text></g><!--entity middleware--><g class="entity" data-qualified-name="artifacts.middleware" data-source-line="36" id="ent0011"><rect fill="#ECEFF1" height="49" rx="2.5" ry="2.5" style="stroke:#546E7A;stroke-width:0.5;" width="220.0488" x="1323" y="365.5"/><polygon fill="#ECEFF1" points="1526.0488,370.5,1526.0488,384.5,1538.0488,384.5,1538.0488,376.5,1532.0488,370.5,1526.0488,370.5" style="stroke:#546E7A;stroke-width:0.5;stroke-linejoin:miter;stroke-miterlimit:10;"/><line style="stroke:#546E7A;stroke-width:0.5;" x1="1532.0488" x2="1532.0488" y1="370.5" y2="376.5"/><line style="stroke:#546E7A;stroke-width:0.5;" x1="1538.0488" x2="1532.0488" y1="376.5" y2="376.5"/><text fill="#000000" font-family="Helvetica" font-size="13" lengthAdjust="spacing" textLength="115.6226" x="1333" y="388.5103">Middleware bundles</text><text fill="#000000" font-family="Helvetica" font-size="13" lengthAdjust="spacing" textLength="190.0488" x="1333" y="401.5103">transport, routing, logging, crypto</text></g><!--entity lower--><g class="entity" data-qualified-name="ecu.linux.lower" data-source-line="56" id="ent0027"><rect fill="#ECEFF1" height="36" rx="2.5" ry="2.5" style="stroke:#546E7A;stroke-width:0.5;" width="182.458" x="524" y="600"/><polygon fill="#ECEFF1" points="689.458,605,689.458,619,701.458,619,701.458,611,695.458,605,689.458,605" style="stroke:#546E7A;stroke-width:0.5;stroke-linejoin:miter;stroke-miterlimit:10;"/><line style="stroke:#546E7A;stroke-width:0.5;" x1="695.458" x2="695.458" y1="605" y2="611"/><line style="stroke:#546E7A;stroke-width:0.5;" x1="701.458" x2="695.458" y1="611" y2="611"/><text fill="#000000" font-family="Helvetica" font-size="13" lengthAdjust="spacing" textLength="152.458" x="534" y="623.0103">Read-only base filesystem</text></g><!--entity writable--><g class="entity" data-qualified-name="ecu.linux.writable" data-source-line="57" id="ent0028"><path d="M32.5,232 L73.5,232 A3.75,3.75 0 0 1 76,234.5 L83,253 L177.439,253 A2.5,2.5 0 0 1 179.939,255.5 L179.939,293.5 A2.5,2.5 0 0 1 177.439,296 L32.5,296 A2.5,2.5 0 0 1 30,293.5 L30,234.5 A2.5,2.5 0 0 1 32.5,232" fill="#F1F1F1" style="stroke:#181818;stroke-width:0.5;"/><line style="stroke:#181818;stroke-width:0.5;" x1="30" x2="83" y1="253" y2="253"/><text fill="#000000" font-family="Helvetica" font-size="13" lengthAdjust="spacing" textLength="119.939" x="40" y="270.0103">Writable runtime and</text><text fill="#000000" font-family="Helvetica" font-size="13" lengthAdjust="spacing" textLength="88.1563" x="40" y="283.0103">persistent state</text></g><!--entity botan--><g class="entity" data-qualified-name="ecu.linux.botan" data-source-line="68" id="ent0035"><rect fill="#ECEFF1" height="49" rx="2.5" ry="2.5" style="stroke:#546E7A;stroke-width:0.5;" width="114.5508" x="30.5" y="593.5"/><polygon fill="#ECEFF1" points="128.0508,598.5,128.0508,612.5,140.0508,612.5,140.0508,604.5,134.0508,598.5,128.0508,598.5" style="stroke:#546E7A;stroke-width:0.5;stroke-linejoin:miter;stroke-miterlimit:10;"/><line style="stroke:#546E7A;stroke-width:0.5;" x1="134.0508" x2="134.0508" y1="598.5" y2="604.5"/><line style="stroke:#546E7A;stroke-width:0.5;" x1="140.0508" x2="134.0508" y1="604.5" y2="604.5"/><text fill="#000000" font-family="Helvetica" font-size="13" lengthAdjust="spacing" textLength="84.5508" x="40.5" y="616.5103">Botan provider</text><text fill="#000000" font-family="Helvetica" font-size="13" lengthAdjust="spacing" textLength="35.3945" x="40.5" y="629.5103">library</text></g><!--entity run--><g class="entity" data-qualified-name="ecu.linux.run" data-source-line="69" id="ent0036"><path d="M510.5,708.5 C510.5,698.5 572.1699,698.5 572.1699,698.5 C572.1699,698.5 633.8398,698.5 633.8398,708.5 L633.8398,743.5 C633.8398,753.5 572.1699,753.5 572.1699,753.5 C572.1699,753.5 510.5,753.5 510.5,743.5 L510.5,708.5" fill="#ECEFF1" style="stroke:#546E7A;stroke-width:0.5;"/><path d="M510.5,708.5 C510.5,718.5 572.1699,718.5 572.1699,718.5 C572.1699,718.5 633.8398,718.5 633.8398,708.5" fill="none" style="stroke:#546E7A;stroke-width:0.5;"/><text fill="#000000" font-family="Helvetica" font-size="13" lengthAdjust="spacing" textLength="22.4009" x="520.5" y="732.5103">/run</text><text fill="#000000" font-family="Helvetica" font-size="13" lengthAdjust="spacing" textLength="103.3398" x="520.5" y="745.5103">runtime endpoints</text></g><!--entity journal--><g class="entity" data-qualified-name="ecu.linux.journal" data-source-line="70" id="ent0037"><path d="M636,481 C636,471 695.1436,471 695.1436,471 C695.1436,471 754.2871,471 754.2871,481 L754.2871,516 C754.2871,526 695.1436,526 695.1436,526 C695.1436,526 636,526 636,516 L636,481" fill="#ECEFF1" style="stroke:#546E7A;stroke-width:0.5;"/><path d="M636,481 C636,491 695.1436,491 695.1436,491 C695.1436,491 754.2871,491 754.2871,481" fill="none" style="stroke:#546E7A;stroke-width:0.5;"/><text fill="#000000" font-family="Helvetica" font-size="13" lengthAdjust="spacing" textLength="59.2427" x="646" y="505.0103">/var/lib/ovf</text><text fill="#000000" font-family="Helvetica" font-size="13" lengthAdjust="spacing" textLength="98.2871" x="646" y="518.0103">execution journal</text></g><!--entity execd--><g class="entity" data-qualified-name="ecu.linux.supervisor.execd" data-source-line="64" id="ent0033"><rect fill="#FAFAFA" height="43" rx="2.5" ry="2.5" style="stroke:#37474F;stroke-width:0.5;" width="96.3608" x="362" y="368.5"/><rect fill="#FAFAFA" height="10" style="stroke:#37474F;stroke-width:0.5;" width="15" x="438.3608" y="373.5"/><rect fill="#FAFAFA" height="2" style="stroke:#37474F;stroke-width:0.5;" width="4" x="436.3608" y="375.5"/><rect fill="#FAFAFA" height="2" style="stroke:#37474F;stroke-width:0.5;" width="4" x="436.3608" y="379.5"/><text fill="#000000" font-family="Helvetica" font-size="13" lengthAdjust="spacing" textLength="56.3608" x="377" y="398.5103">ovf-execd</text></g><!--entity applications--><g class="entity" data-qualified-name="ecu.linux.supervisor.applications" data-source-line="65" id="ent0034"><rect fill="#FAFAFA" height="56" rx="2.5" ry="2.5" style="stroke:#37474F;stroke-width:0.5;" width="159.9771" x="253" y="470.5"/><rect fill="#FAFAFA" height="10" style="stroke:#37474F;stroke-width:0.5;" width="15" x="392.9771" y="475.5"/><rect fill="#FAFAFA" height="2" style="stroke:#37474F;stroke-width:0.5;" width="4" x="390.9771" y="477.5"/><rect fill="#FAFAFA" height="2" style="stroke:#37474F;stroke-width:0.5;" width="4" x="390.9771" y="481.5"/><text fill="#000000" font-family="Helvetica" font-size="13" lengthAdjust="spacing" textLength="119.9771" x="268" y="500.5103">Managed application</text><text fill="#000000" font-family="Helvetica" font-size="13" lengthAdjust="spacing" textLength="59.249" x="268" y="513.5103">processes</text></g><!--entity routing--><g class="entity" data-qualified-name="ecu.linux.supervisor.services.routing" data-source-line="61" id="ent0031"><rect fill="#FAFAFA" height="43" rx="2.5" ry="2.5" style="stroke:#37474F;stroke-width:0.5;" width="138.2871" x="362" y="596.5"/><rect fill="#FAFAFA" height="10" style="stroke:#37474F;stroke-width:0.5;" width="15" x="480.2871" y="601.5"/><rect fill="#FAFAFA" height="2" style="stroke:#37474F;stroke-width:0.5;" width="4" x="478.2871" y="603.5"/><rect fill="#FAFAFA" height="2" style="stroke:#37474F;stroke-width:0.5;" width="4" x="478.2871" y="607.5"/><text fill="#000000" font-family="Helvetica" font-size="13" lengthAdjust="spacing" textLength="98.2871" x="377" y="626.5103">routingmanagerd</text></g><!--entity dlt_daemon--><g class="entity" data-qualified-name="ecu.linux.supervisor.services.dlt_daemon" data-source-line="62" id="ent0032"><rect fill="#FAFAFA" height="43" rx="2.5" ry="2.5" style="stroke:#37474F;stroke-width:0.5;" width="105.0381" x="238.5" y="596.5"/><rect fill="#FAFAFA" height="10" style="stroke:#37474F;stroke-width:0.5;" width="15" x="323.5381" y="601.5"/><rect fill="#FAFAFA" height="2" style="stroke:#37474F;stroke-width:0.5;" width="4" x="321.5381" y="603.5"/><rect fill="#FAFAFA" height="2" style="stroke:#37474F;stroke-width:0.5;" width="4" x="321.5381" y="607.5"/><text fill="#000000" font-family="Helvetica" font-size="13" lengthAdjust="spacing" textLength="65.0381" x="253.5" y="626.5103">dlt-daemon</text></g><g class="link" data-entity-1="ent0002" data-entity-2="ent0006" data-link-type="dependency" id="lnk13"><polygon fill="#455A64" points="1152.457,229.2666,1148.8387,220.1065,1148.8897,225.7631,1143.2331,225.8141,1152.457,229.2666" style="stroke:#455A64;stroke-width:1;stroke-linejoin:miter;stroke-miterlimit:10;"/><path d="M1016.8737,112.2072 C1028.6403,120.3632 1041.6122,129.7718 1053,139 C1088.4413,167.7202 1122.6803,200.0218 1148.8897,225.7631" fill="none" style="stroke:#455A64;stroke-width:1.2;"/></g><g class="link" data-entity-1="ent0003" data-entity-2="ent0006" data-link-type="dependency" id="lnk14"><polygon fill="#455A64" points="1173.0972,229.395,1173.6055,219.5593,1171.305,224.7272,1166.137,222.4268,1173.0972,229.395" style="stroke:#455A64;stroke-width:1;stroke-linejoin:miter;stroke-miterlimit:10;"/><path d="M1128.0359,112.0338 C1139.6446,142.2684 1158.0788,190.2799 1171.305,224.7272" fill="none" style="stroke:#455A64;stroke-width:1.2;"/></g><g class="link" data-entity-1="ent0004" data-entity-2="ent0006" data-link-type="dependency" id="lnk15"><polygon fill="#455A64" points="1199.0954,229.395,1206.0902,222.4616,1200.9108,224.7362,1198.6362,219.5569,1199.0954,229.395" style="stroke:#455A64;stroke-width:1;stroke-linejoin:miter;stroke-miterlimit:10;"/><path d="M1244.8292,112.0338 C1233.0473,142.2684 1214.3344,190.2889 1200.9108,224.7362" fill="none" style="stroke:#455A64;stroke-width:1.2;"/></g><g class="link" data-entity-1="ent0005" data-entity-2="ent0006" data-link-type="dependency" id="lnk16"><polygon fill="#455A64" points="1227.2119,229.395,1236.7147,226.8074,1231.0869,226.2352,1231.6591,220.6074,1227.2119,229.395" style="stroke:#455A64;stroke-width:1;stroke-linejoin:miter;stroke-miterlimit:10;"/><path d="M1371.139,112.0338 C1334.0605,142.2684 1273.3318,191.7879 1231.0869,226.2352" fill="none" style="stroke:#455A64;stroke-width:1.2;"/></g><g class="link" data-entity-1="ent0006" data-entity-2="ent0008" data-link-type="dependency" id="lnk17"><polygon fill="#455A64" points="894.153,365.3976,903.9236,364.1583,898.4302,362.8081,899.7804,357.3147,894.153,365.3976" style="stroke:#455A64;stroke-width:1;stroke-linejoin:miter;stroke-miterlimit:10;"/><path d="M1088.2308,289.6756 C1042.0657,302.7337 986.7491,320.4417 939,341.5 C923.7857,348.2098 912.1136,354.524 898.4302,362.8081" fill="none" style="stroke:#455A64;stroke-width:1.2;"/></g><g class="link" data-entity-1="ent0006" data-entity-2="ent0009" data-link-type="dependency" id="lnk18"><polygon fill="#455A64" points="1060.6979,365.2417,1070.2245,362.7429,1064.6022,362.1182,1065.2269,356.496,1060.6979,365.2417" style="stroke:#455A64;stroke-width:1;stroke-linejoin:miter;stroke-miterlimit:10;"/><path d="M1144.0548,298.5562 C1117.6959,319.6433 1088.2356,343.2115 1064.6022,362.1182" fill="none" style="stroke:#455A64;stroke-width:1.2;"/></g><g class="link" data-entity-1="ent0006" data-entity-2="ent0010" data-link-type="dependency" id="lnk19"><polygon fill="#455A64" points="1212.6772,365.2417,1214.2281,355.5157,1211.3913,360.4099,1206.4972,357.5731,1212.6772,365.2417" style="stroke:#455A64;stroke-width:1;stroke-linejoin:miter;stroke-miterlimit:10;"/><path d="M1194.9303,298.5562 C1200.5422,319.6433 1206.3597,341.5031 1211.3913,360.4099" fill="none" style="stroke:#455A64;stroke-width:1.2;"/></g><g class="link" data-entity-1="ent0006" data-entity-2="ent0011" data-link-type="dependency" id="lnk20"><polygon fill="#455A64" points="1386.0588,365.4344,1379.8101,357.8216,1381.5903,363.1911,1376.2208,364.9712,1386.0588,365.4344" style="stroke:#455A64;stroke-width:1;stroke-linejoin:miter;stroke-miterlimit:10;"/><path d="M1252.8418,298.5562 C1294.9888,319.715 1343.9073,344.2733 1381.5903,363.1911" fill="none" style="stroke:#455A64;stroke-width:1.2;"/></g><g class="link" data-entity-1="ent0008" data-entity-2="ent0012" data-link-type="dependency" id="lnk21"><polygon fill="#455A64" points="982.1693,467.4395,976.6021,459.3151,977.9114,464.8183,972.4082,466.1277,982.1693,467.4395" style="stroke:#455A64;stroke-width:1;stroke-linejoin:miter;stroke-miterlimit:10;"/><path d="M896.3943,414.6358 C921.6788,430.2011 950.7462,448.0952 977.9114,464.8183" fill="none" style="stroke:#455A64;stroke-width:1.2;"/></g><g class="link" data-entity-1="ent0009" data-entity-2="ent0012" data-link-type="dependency" id="lnk22"><polygon fill="#455A64" points="1031,467.4395,1035,458.4395,1031,462.4395,1027,458.4395,1031,467.4395" style="stroke:#455A64;stroke-width:1;stroke-linejoin:miter;stroke-miterlimit:10;"/><path d="M1031,414.6358 C1031,430.2011 1031,445.7164 1031,462.4395" fill="none" style="stroke:#455A64;stroke-width:1.2;"/></g><g class="link" data-entity-1="ent0010" data-entity-2="ent0012" data-link-type="dependency" id="lnk23"><polygon fill="#455A64" points="1084.0646,467.4395,1093.8669,466.4838,1088.415,464.975,1089.9238,459.5231,1084.0646,467.4395" style="stroke:#455A64;stroke-width:1;stroke-linejoin:miter;stroke-miterlimit:10;"/><path d="M1177.2767,414.6358 C1149.7999,430.2011 1117.9357,448.2519 1088.415,464.975" fill="none" style="stroke:#455A64;stroke-width:1.2;"/></g><g class="link" data-entity-1="ent0011" data-entity-2="ent0012" data-link-type="dependency" id="lnk24"><polygon fill="#455A64" points="1102.1002,478.6638,1111.8244,480.2255,1106.9335,477.3833,1109.7757,472.4923,1102.1002,478.6638" style="stroke:#455A64;stroke-width:1;stroke-linejoin:miter;stroke-miterlimit:10;"/><path d="M1344.2817,414.5037 C1271.4474,433.7994 1174.4854,459.4871 1106.9335,477.3833" fill="none" style="stroke:#455A64;stroke-width:1.2;"/></g><g class="link" data-entity-1="ent0012" data-entity-2="ent0027" data-link-type="dependency" id="lnk38"><polygon fill="#455A64" points="675.2777,599.9745,685.0261,601.3775,680.0894,598.6154,682.8515,593.6787,675.2777,599.9745" style="stroke:#455A64;stroke-width:1;stroke-linejoin:miter;stroke-miterlimit:10;"/><path d="M959.9597,519.5655 C879.7831,542.2115 755.544,577.3031 680.0894,598.6154" fill="none" style="stroke:#455A64;stroke-width:1.2;"/><text fill="#000000" font-family="Helvetica" font-size="13" lengthAdjust="spacing" textLength="117.0698" x="863" y="559.5103">installed or mounted</text></g><g class="link" data-entity-1="ent0029" data-entity-2="ent0030" data-link-type="dependency" id="lnk39"><polygon fill="#455A64" points="212.7267,572.3005,217.4236,563.6437,213.1208,567.316,209.4485,563.0132,212.7267,572.3005" style="stroke:#455A64;stroke-width:1;stroke-linejoin:miter;stroke-miterlimit:10;"/><path d="M357.6791,276.1017 C355.5329,282.7424 352.493,291.2682 349,298.5 C294.4328,411.4764 240.567,424.4647 216,547.5 C214.9942,552.5371 214.2121,557.8172 213.6072,563.1208 C213.3048,565.7727 213.0466,568.4304 212.8269,571.0665 C212.7994,571.396 212.7725,571.7252 212.7463,572.054 C212.7397,572.1362 213.1273,567.2339 213.1208,567.316" fill="none" style="stroke:#455A64;stroke-width:1.2;"/><text fill="#000000" font-family="Helvetica" font-size="13" lengthAdjust="spacing" textLength="49.8354" x="264" y="444.5103">start first</text></g><g class="link" data-entity-1="ent0029" data-entity-2="ent0033" data-link-type="dependency" id="lnk40"><polygon fill="#455A64" points="401.8803,368.4522,402.2928,358.612,400.0428,363.8021,394.8526,361.552,401.8803,368.4522" style="stroke:#455A64;stroke-width:1;stroke-linejoin:miter;stroke-miterlimit:10;"/><path d="M365.3484,276.0042 C373.5462,296.7495 389.5642,337.285 400.0428,363.8021" fill="none" style="stroke:#455A64;stroke-width:1.2;"/><text fill="#000000" font-family="Helvetica" font-size="13" lengthAdjust="spacing" textLength="143.7935" x="389" y="328.5103">start after bootstrap units</text></g><g class="link" data-entity-1="ent0033" data-entity-2="ent0034" data-link-type="dependency" id="lnk41"><polygon fill="#455A64" points="326.9457,470.2065,329.9985,460.8427,326.4313,465.2331,322.041,461.6658,326.9457,470.2065" style="stroke:#455A64;stroke-width:1;stroke-linejoin:miter;stroke-miterlimit:10;"/><path d="M361.6865,406.9775 C350.3287,413.1185 339.617,421.4169 333,432.5 C326.3475,443.6426 325.1574,452.9177 326.4313,465.2331" fill="none" style="stroke:#455A64;stroke-width:1.2;"/><text fill="#000000" font-family="Helvetica" font-size="13" lengthAdjust="spacing" textLength="170.5298" x="335" y="444.5103">mode transitions and lifecycle</text></g><g class="link" data-entity-1="ent0034" data-entity-2="ent0031" data-link-type="dependency" id="lnk42"><polygon fill="#455A64" points="396.4589,596.4106,390.6451,588.4608,392.1226,593.9213,386.6621,595.3987,396.4589,596.4106" style="stroke:#455A64;stroke-width:1;stroke-linejoin:miter;stroke-miterlimit:10;"/><path d="M326.5034,526.7725 C325.0803,539.2264 325.7592,553.5947 333,564.5 C338.0682,572.1331 343.7728,568.4672 352,572.5 C366.8415,579.7749 378.4621,586.0789 392.1226,593.9213" fill="none" style="stroke:#455A64;stroke-width:1.2;"/><text fill="#000000" font-family="Helvetica" font-size="13" lengthAdjust="spacing" textLength="87.4263" x="335" y="559.5103">communication</text></g><g class="link" data-entity-1="ent0034" data-entity-2="ent0032" data-link-type="dependency" id="lnk43"><polygon fill="#455A64" points="261.2284,596.2303,256.2381,587.7394,257.1626,593.3202,251.5818,594.2447,261.2284,596.2303" style="stroke:#455A64;stroke-width:1;stroke-linejoin:miter;stroke-miterlimit:10;"/><path d="M252.904,520.4362 C240.6729,527.1193 229.6093,535.9192 222,547.5 C217.851,553.8145 218.6445,557.7305 222,564.5 C224.2729,569.0854 239.5387,580.7055 257.1626,593.3202" fill="none" style="stroke:#455A64;stroke-width:1.2;"/><text fill="#000000" font-family="Helvetica" font-size="13" lengthAdjust="spacing" textLength="85.2617" x="224" y="559.5103">structured logs</text></g><g class="link" data-entity-1="ent0034" data-entity-2="ent0035" data-link-type="dependency" id="lnk44"><polygon fill="#455A64" points="88.0803,593.2248,92.8657,584.6166,88.5255,588.2446,84.8975,583.9044,88.0803,593.2248" style="stroke:#455A64;stroke-width:1;stroke-linejoin:miter;stroke-miterlimit:10;"/><path d="M252.7086,507.5156 C196.1681,514.7768 126.9644,527.4592 106,547.5 C93.7469,559.2133 89.8777,573.1158 88.5255,588.2446" fill="none" style="stroke:#455A64;stroke-width:1.2;stroke-dasharray:7,7;"/><text fill="#000000" font-family="Helvetica" font-size="13" lengthAdjust="spacing" textLength="106.2217" x="108" y="559.5103">loads provider ABI</text></g><g class="link" data-entity-1="ent0030" data-entity-2="ent0036" data-link-type="dependency" id="lnk45"><polygon fill="#455A64" points="510.2535,719.1714,501.7305,714.2359,505.2819,718.6391,500.8788,722.1905,510.2535,719.1714" style="stroke:#455A64;stroke-width:1;stroke-linejoin:miter;stroke-miterlimit:10;"/><path d="M221.9018,647.5531 C221.9457,647.6199 221.9897,647.6865 222.0339,647.753 C222.2108,648.0191 222.3907,648.2832 222.5735,648.5449 C222.9392,649.0685 223.3169,649.5829 223.7068,650.0865 C225.2666,652.101 227.0234,653.9424 229,655.5 C271.8895,689.2995 418.6811,709.3665 505.2819,718.6391" fill="none" style="stroke:#455A64;stroke-width:1.2;"/><text fill="#000000" font-family="Helvetica" font-size="13" lengthAdjust="spacing" textLength="94.6563" x="283" y="675.5103">sockets and IPC</text></g><g class="link" data-entity-1="ent0033" data-entity-2="ent0036" data-link-type="dependency" id="lnk46"><polygon fill="#455A64" points="633.839,711.2724,643.6452,712.1888,638.5772,709.6757,641.0904,704.6077,633.839,711.2724" style="stroke:#455A64;stroke-width:1;stroke-linejoin:miter;stroke-miterlimit:10;"/><path d="M458.2147,407.335 C475.43,414.0573 494.6087,422.6043 511,432.5 C568.5335,467.2338 570.6192,492.9248 627,529.5 C663.5193,553.1908 691.9458,535.5755 715,572.5 C734.5367,603.7907 734.5699,624.23 715,655.5 C697.1346,684.0464 668.5584,699.572 638.5772,709.6757" fill="none" style="stroke:#455A64;stroke-width:1.2;"/><text fill="#000000" font-family="Helvetica" font-size="13" lengthAdjust="spacing" textLength="86.7026" x="712" y="559.5103">control sockets</text></g><g class="link" data-entity-1="ent0033" data-entity-2="ent0037" data-link-type="dependency" id="lnk47"><polygon fill="#455A64" points="671.4392,470.9468,667.9306,461.7441,667.914,467.4009,662.2572,467.3844,671.4392,470.9468" style="stroke:#455A64;stroke-width:1;stroke-linejoin:miter;stroke-miterlimit:10;"/><path d="M458.3709,393.3468 C502.6833,397.1188 569.0831,406.9411 621,432.5 C640.0232,441.8652 654.4543,453.8622 667.914,467.4009" fill="none" style="stroke:#455A64;stroke-width:1.2;"/><text fill="#000000" font-family="Helvetica" font-size="13" lengthAdjust="spacing" textLength="105.498" x="648" y="444.5103">recovery evidence</text></g><g class="link" data-entity-1="ent0034" data-entity-2="ent0027" data-link-type="dependency" id="lnk48"><polygon fill="#455A64" points="582.0036,599.8894,575.6308,592.3803,577.4989,597.7198,572.1594,599.5879,582.0036,599.8894" style="stroke:#455A64;stroke-width:1;stroke-linejoin:miter;stroke-miterlimit:10;"/><path d="M388.27,526.5561 C400.5652,533.0633 413.3901,540.2422 425,547.5 C435.7786,554.2381 436.1974,559.78 448,564.5 C474.6163,575.1442 484.343,564.9621 512,572.5 C536.2442,579.1077 557.704,588.186 577.4989,597.7198" fill="none" style="stroke:#455A64;stroke-width:1.2;stroke-dasharray:7,7;"/><text fill="#000000" font-family="Helvetica" font-size="13" lengthAdjust="spacing" textLength="190.7725" x="450" y="559.5103">binaries and deployment artifacts</text></g><g class="link" data-entity-1="ent0029" data-entity-2="ent0050" data-link-type="association" id="lnk51"><path d="M517.5802,264 C518.1126,264 518.6449,264 519.1773,264 C520.2419,264 521.3066,264 522.3713,264 C539.4063,264 556.4412,264 573.4762,264 C641.616,264 709.7559,264 777.8957,264" fill="none" style="stroke:#455A64;stroke-width:1.2;stroke-dasharray:7,7;"/></g><?plantuml-src XLRRRXit47tVhvYghx4DrtQS1eO0MPRQ04rgn4dw8i2WbYE9DPTSa5mfIX6W7z4lx9TqUD4kT-MazekMSsOud7Dco1zgmzOL0ydskd5WAtHCiS899n5-hr5zmeqe9SuDgt2dpHFy-_S_y0igDCmXXm_ChD41KnpUDyg92k4EQwdt5IfN54xNu3GijNEw0YuCbaveLTWdeMf6CM79ogUrqOtYKosrWH_duIz3s0tZUYVK6bPCMimifQvghMYZ1xUdT9jA_fHPQuhCrXXjVcEcrZ9tvxXYZNHphTmxEXtyYdABJfJiUSo3-89mVf4P9yReNKhxykfgyl9oQFn0nNjIQ2sSd-QvlTCSRxNXQ9BxnVNbzULyY3YgpSJ_zpPnOiLArujrTVboTlqiQXXlDftDv-SPSdgewFUJws3_c-4TSsp9B7u_mnRrZGoBH2QC9etRQ4FAyvApA8bN-g0uZRCZO3Rzf4mkvg_cK_Yh063f_31wg8JRxCdFR4M92rKIhuOiqTK6QyzXKjUI5E552zEFiuNYhRg32wlhnxB1di-zP6wbJHKTQaq1zW5S9yEHn-mpbatOWqcfutQqbQwOK3QSj28vn2GxHF6rADeMWD4d9WKFJNdBlg24TMpI42eKQsyTLjG9LikmMGYNK5Jhcvjb8oG7tyJZSLRo1_GaEPHKk8seQxQaXZeadv8wV8N-VJKx7zGzB-EIs9Le5-fCr-xiXdMcSLlIXEd58D5LZJf4CN7Qv8J4LAWYZzdQD-hiwobzPIc0KC8T944DRqiZQW-AyP1yie2zU6y5fpHtp61tAjAJihKsxWMGa1tDhHSWzNeTVfHcNpiTubQjh-UnYtc73ar5ELaQHU32V5sebQ3WWS3WRBHsAqkKCMkn8ZwuPopg5qvEnXsjHLBeO3MNuj2X5TZ0q4d5h-SqzIr31lhMOJtxrgmgsGR15CzS3ABdfa7etDJ5pLSBHJA0KRh4PjEFaV6o8HbVpt-UJuAC8-WtePhFYOy0as710t99l4V6JxIYNl7p30QyIRr34pnMMj8yXD4VHhZGK4dGKPCr6ai2y8UmZbelEEyIj0W1ObP1l0jr_-OEpk4CR5Dx7Ljjua1hFqags8eVrLOOhNoDnkDq0e1ibBGJB7L56e_fe_Ne-IInL_HyMAFXIQPXxJaub-w4CwpI6ABFn_YPm5-FizBRrOa_16_xaX-3teRzEMHZXSffDELj3nEqCzaYxZKWyLRJOm78Qok8f8MIOccOYKDywMq1pzEb1QCp8c-X3WoYuhKMXtb4gqFqbfap2db61rgeZfO_TMCKay4h_IvySfHUwdSltI0XU4tt72b3KkS3iLlHbKcJlyW8zzYMiTTUHiQH78rrGrIeP0jXAve_T4hjB8so6cZakjXQ_D3tRVN8oGzI23DFn2L_rKYnmd9FpyQYXuwT5oH1dcK-pu-1dI92QgOfNUFlVPgbjey-FHr7LWWeDUEsPGucjs-AjWXX-oQ4q-KJkfZhc_jfThfe3yy2BG-up9vu8GozAFKMpHxGRwLAF4xgGDLIA6O4nlso-TJUcduGEHe1Ohrne5TPtv807ZmjJUqd1WLiRsmCeKXhj3V5FlN8JUFegKoN8r9c97Tm6-nGUmXliDE2Fi5l-1y0?></g></svg>